<?xml version="1.0" encoding="UTF-8" standalone="no"?>
<svg width="600px" height="335px" viewBox="0 0 600 335" version="1.1" xmlns="http://www.w3.org/2000/svg" xmlns:xlink="http://www.w3.org/1999/xlink">
    <!-- Generator: Sketch 3.8.3 (29802) - http://www.bohemiancoding.com/sketch -->
    <title>Movement_logo</title>
    <desc>Created with Sketch.</desc>
    <defs></defs>
    <g id="iOS-Icons-(Arrow)" stroke="none" stroke-width="1" fill="none" fill-rule="evenodd">
        <g id="Movement_logo" fill="#FFFFFF">
            <path d="M147.212507,190.698681 L93.7208207,283.164139 C85.2972649,297.725055 66.568654,302.721757 51.9761858,294.313601 C37.3584892,285.890909 32.3543129,267.22177 40.8095342,252.606118 L106.638786,138.814007 C109.850512,133.262235 109.816672,126.72922 107.12479,121.403257 L106.090819,119.61594 C104.56894,117.298283 102.494724,115.291687 99.9260183,113.811603 C91.1543121,108.757361 79.9379749,111.756773 74.8736279,120.510977 L9.04437595,234.303087 C-9.53617987,266.421342 1.46963042,307.480848 33.6365631,326.01538 C65.7642122,344.527277 106.928971,333.544719 125.485979,301.467169 L168.38928,227.304742 L147.212507,190.698681 L147.212507,190.698681 Z" id="Path"></path>
            <path d="M147.067312,11.2217333 C117.710375,30.6541464 108.197557,69.8102522 126.042493,100.656917 L236.954533,292.378906 C242.315284,306.066674 252.195596,318.09677 265.93845,326.01538 C276.676596,332.202682 288.424298,335.095092 300,335.00623 C311.575702,335.095092 323.323404,332.202682 334.06155,326.01538 C335.537452,325.164968 336.850107,324.140737 337.988544,322.983557 C345.860959,317.526009 352.680629,310.295513 357.787866,301.467169 L400.691166,227.304742 L379.514394,190.698681 L326.022707,283.164139 C320.457949,292.783352 310.395889,298.228579 300,298.392543 C289.604111,298.228579 279.542051,292.783352 273.977293,283.164139 L157.807651,82.3538871 C149.381333,67.7881975 154.39381,49.118286 169.004946,40.6993741 C173.79752,37.9379013 179.038736,36.6248128 184.215936,36.6240247 C189.15116,36.7477725 194.124537,38.066937 198.693167,40.6993741 C213.304303,49.118286 218.31678,67.7881975 209.890462,82.3538871 L199.054024,101.0857 L220.230796,137.69176 L241.655621,100.656917 C252.879729,81.2549799 253.280675,58.5656955 244.72811,39.5646755 C244.366096,37.5199665 243.646654,35.5024284 242.546148,33.6000987 C230.177708,12.2200759 207.783106,0.193675631 184.711269,0.0138703892 C171.322672,-0.230645906 158.085028,3.5238311 146.82011,10.7944215 L147.067312,11.2217333 L147.067312,11.2217333 Z" id="Combined-Shape"></path>
            <path d="M537.284949,141.528231 L591.000186,234.380116 C609.533543,266.416783 598.505502,307.495176 566.363437,326.01538 C534.235788,344.527277 493.071029,333.544719 474.514021,301.467169 L358.344379,100.656917 C340.499444,69.8102522 350.012262,30.6541464 379.369198,11.2217333 L379.121997,10.7944215 C390.386915,3.5238311 403.624559,-0.230645906 417.013156,0.0138703892 C440.084993,0.193675631 462.479594,12.2200759 474.848035,33.6000987 C475.948541,35.5024284 476.667983,37.5199665 477.029997,39.5646755 C485.582562,58.5656955 485.181616,81.2549799 473.957507,100.656917 L452.532683,137.69176 L431.355911,101.0857 L442.192349,82.3538871 C450.618667,67.7881975 445.60619,49.118286 430.995054,40.6993741 C426.426423,38.066937 421.453047,36.7477725 416.517823,36.6240247 C411.340623,36.6248128 406.099407,37.9379013 401.306833,40.6993741 C386.695697,49.118286 381.68322,67.7881975 390.109538,82.3538871 L506.279179,283.164139 C514.702735,297.725055 533.431346,302.721757 548.023814,294.313601 C562.622181,285.902047 567.639856,267.21169 559.235027,252.683147 L505.519791,159.831262 L494.03563,166.448416 C488.200815,169.810427 484.53843,167.175968 485.844707,160.6182 L495.048824,114.411719 C495.712864,111.078109 498.839039,109.25271 502.09016,110.354513 L546.788206,125.502659 C553.155285,127.660459 553.578085,132.140154 547.751954,135.497161 L537.284949,141.528231 L537.284949,141.528231 Z" id="Combined-Shape"></path>
            <polygon id="Path" points="279.861697 240.937625 331.139095 152.299776 344.219774 129.68858 323.043002 93.0825195 299.373937 133.996745 258.684925 204.331565 279.861697 240.937625"></polygon>
        </g>
    </g>
</svg>